<svg width="125" height="71" viewBox="0 0 125 71" fill="none" xmlns="http://www.w3.org/2000/svg">
<path d="M15.568 66.408L15.0518 67.2645L15.0605 67.2696L15.568 66.408ZM4.624 54.312L3.72741 54.7549L3.72957 54.7592L4.624 54.312ZM4.624 16.584L5.51844 17.0312L5.52058 17.0269L4.624 16.584ZM15.568 4.488L16.0756 5.34967L16.0842 5.34445L15.568 4.488ZM47.632 4.488L47.1158 5.3445L47.1245 5.34963L47.632 4.488ZM58.576 16.584L57.6794 17.0269L57.6816 17.0312L58.576 16.584ZM58.576 54.312L59.4704 54.7592L59.4726 54.7549L58.576 54.312ZM47.632 66.408L48.1396 67.2697L48.1482 67.2645L47.632 66.408ZM31.6 69.536C25.7424 69.536 20.5773 68.1981 16.0755 65.5464L15.0605 67.2696C19.9027 70.1219 25.4256 71.536 31.6 71.536V69.536ZM16.0842 65.5515C11.5869 62.8408 8.06436 58.9566 5.51843 53.8648L3.72957 54.7592C6.43164 60.1633 10.2051 64.3432 15.0518 67.2645L16.0842 65.5515ZM5.52058 53.8691C2.97853 48.723 1.688 42.5773 1.688 35.4H-0.312C-0.312 42.8147 1.02147 49.277 3.72742 54.7549L5.52058 53.8691ZM1.688 35.4C1.688 28.2223 2.97869 22.1107 5.51843 17.0312L3.72957 16.1368C1.02131 21.5533 -0.312 27.9857 -0.312 35.4H1.688ZM5.52058 17.0269C8.06672 11.8725 11.5867 7.99375 16.0755 5.34962L15.0605 3.62637C10.2053 6.48624 6.42928 10.6715 3.72742 16.1411L5.52058 17.0269ZM16.0842 5.34445C20.5847 2.63184 25.7467 1.264 31.6 1.264V-0.736002C25.4214 -0.736002 19.8953 0.712151 15.0518 3.63154L16.0842 5.34445ZM31.6 1.264C37.4534 1.264 42.6153 2.63184 47.1158 5.34445L48.1482 3.63154C43.3047 0.712151 37.7787 -0.736002 31.6 -0.736002V1.264ZM47.1245 5.34963C51.6133 7.99375 55.1333 11.8725 57.6794 17.0269L59.4726 16.1411C56.7707 10.6715 52.9947 6.48624 48.1395 3.62636L47.1245 5.34963ZM57.6816 17.0312C60.2213 22.1107 61.512 28.2223 61.512 35.4H63.512C63.512 27.9857 62.1787 21.5533 59.4704 16.1368L57.6816 17.0312ZM61.512 35.4C61.512 42.5773 60.2215 48.723 57.6794 53.8691L59.4726 54.7549C62.1785 49.277 63.512 42.8147 63.512 35.4H61.512ZM57.6816 53.8648C55.1356 58.9566 51.6132 62.8408 47.1158 65.5515L48.1482 67.2645C52.9949 64.3432 56.7684 60.1633 59.4704 54.7592L57.6816 53.8648ZM47.1245 65.5464C42.6227 68.1981 37.4576 69.536 31.6 69.536V71.536C37.7744 71.536 43.2973 70.1219 48.1395 67.2696L47.1245 65.5464ZM31.6 53.392C33.1435 53.392 34.5368 52.9868 35.7402 52.1515C36.9353 51.3219 37.886 50.1083 38.6214 48.5769C40.0793 45.5411 40.76 41.1121 40.76 35.4H38.76C38.76 41.0159 38.0807 45.0829 36.8186 47.7111C36.194 49.0117 35.4447 49.9221 34.5998 50.5085C33.7632 51.0892 32.7765 51.392 31.6 51.392V53.392ZM40.76 35.4C40.76 29.6879 40.0793 25.2589 38.6214 22.2231C37.886 20.6917 36.9353 19.4781 35.7402 18.6485C34.5368 17.8132 33.1435 17.408 31.6 17.408V19.408C32.7765 19.408 33.7632 19.7108 34.5998 20.2915C35.4447 20.8779 36.194 21.7883 36.8186 23.0889C38.0807 25.7171 38.76 29.7841 38.76 35.4H40.76ZM31.6 17.408C30.0565 17.408 28.6632 17.8132 27.4598 18.6485C26.2647 19.4781 25.314 20.6917 24.5786 22.2231C23.1207 25.2589 22.44 29.6879 22.44 35.4H24.44C24.44 29.7841 25.1193 25.7171 26.3814 23.0889C27.006 21.7883 27.7553 20.8779 28.6002 20.2915C29.4368 19.7108 30.4235 19.408 31.6 19.408V17.408ZM22.44 35.4C22.44 41.1121 23.1207 45.5411 24.5786 48.5769C25.314 50.1083 26.2647 51.3219 27.4598 52.1515C28.6632 52.9868 30.0565 53.392 31.6 53.392V51.392C30.4235 51.392 29.4368 51.0892 28.6002 50.5085C27.7553 49.9221 27.006 49.0117 26.3814 47.7111C25.1193 45.0829 24.44 41.0159 24.44 35.4H22.44ZM124.163 51.912H125.163V50.912H124.163V51.912ZM124.163 69V70H125.163V69H124.163ZM76.5468 69H75.5468V70H76.5468V69ZM76.5468 51.912V50.912H75.5468V51.912H76.5468ZM89.9868 51.912V52.912H90.9868V51.912H89.9868ZM89.9868 18.888H90.9868V17.888H89.9868V18.888ZM77.9867 18.888H76.9867V19.888H77.9867V18.888ZM77.9867 1.8V0.799995H76.9867V1.8H77.9867ZM112.643 1.8H113.643V0.799995H112.643V1.8ZM112.643 51.912H111.643V52.912H112.643V51.912ZM123.163 51.912V69H125.163V51.912H123.163ZM124.163 68H76.5468V70H124.163V68ZM77.5468 69V51.912H75.5468V69H77.5468ZM76.5468 52.912H89.9868V50.912H76.5468V52.912ZM90.9868 51.912V18.888H88.9868V51.912H90.9868ZM89.9868 17.888H77.9867V19.888H89.9868V17.888ZM78.9867 18.888V1.8H76.9867V18.888H78.9867ZM77.9867 2.8H112.643V0.799995H77.9867V2.8ZM111.643 1.8V51.912H113.643V1.8H111.643ZM112.643 52.912H124.163V50.912H112.643V52.912Z" fill="#454545"/>
</svg>
