<svg width="127" height="71" viewBox="0 0 127 71" fill="none" xmlns="http://www.w3.org/2000/svg">
<path d="M15.568 66.408L15.0518 67.2645L15.0605 67.2696L15.568 66.408ZM4.624 54.312L3.72741 54.7549L3.72957 54.7592L4.624 54.312ZM4.624 16.584L5.51844 17.0312L5.52058 17.0269L4.624 16.584ZM15.568 4.488L16.0756 5.34967L16.0842 5.34445L15.568 4.488ZM47.632 4.488L47.1158 5.3445L47.1245 5.34963L47.632 4.488ZM58.576 16.584L57.6794 17.0269L57.6816 17.0312L58.576 16.584ZM58.576 54.312L59.4704 54.7592L59.4726 54.7549L58.576 54.312ZM47.632 66.408L48.1396 67.2697L48.1482 67.2645L47.632 66.408ZM31.6 69.536C25.7424 69.536 20.5773 68.1981 16.0755 65.5464L15.0605 67.2696C19.9027 70.1219 25.4256 71.536 31.6 71.536V69.536ZM16.0842 65.5515C11.5869 62.8408 8.06436 58.9566 5.51843 53.8648L3.72957 54.7592C6.43164 60.1633 10.2051 64.3432 15.0518 67.2645L16.0842 65.5515ZM5.52058 53.8691C2.97853 48.723 1.688 42.5773 1.688 35.4H-0.312C-0.312 42.8147 1.02147 49.277 3.72742 54.7549L5.52058 53.8691ZM1.688 35.4C1.688 28.2223 2.97869 22.1107 5.51843 17.0312L3.72957 16.1368C1.02131 21.5533 -0.312 27.9857 -0.312 35.4H1.688ZM5.52058 17.0269C8.06672 11.8725 11.5867 7.99375 16.0755 5.34962L15.0605 3.62637C10.2053 6.48624 6.42928 10.6715 3.72742 16.1411L5.52058 17.0269ZM16.0842 5.34445C20.5847 2.63184 25.7467 1.264 31.6 1.264V-0.736002C25.4214 -0.736002 19.8953 0.712151 15.0518 3.63154L16.0842 5.34445ZM31.6 1.264C37.4534 1.264 42.6153 2.63184 47.1158 5.34445L48.1482 3.63154C43.3047 0.712151 37.7787 -0.736002 31.6 -0.736002V1.264ZM47.1245 5.34963C51.6133 7.99375 55.1333 11.8725 57.6794 17.0269L59.4726 16.1411C56.7707 10.6715 52.9947 6.48624 48.1395 3.62636L47.1245 5.34963ZM57.6816 17.0312C60.2213 22.1107 61.512 28.2223 61.512 35.4H63.512C63.512 27.9857 62.1787 21.5533 59.4704 16.1368L57.6816 17.0312ZM61.512 35.4C61.512 42.5773 60.2215 48.723 57.6794 53.8691L59.4726 54.7549C62.1785 49.277 63.512 42.8147 63.512 35.4H61.512ZM57.6816 53.8648C55.1356 58.9566 51.6132 62.8408 47.1158 65.5515L48.1482 67.2645C52.9949 64.3432 56.7684 60.1633 59.4704 54.7592L57.6816 53.8648ZM47.1245 65.5464C42.6227 68.1981 37.4576 69.536 31.6 69.536V71.536C37.7744 71.536 43.2973 70.1219 48.1395 67.2696L47.1245 65.5464ZM31.6 53.392C33.1435 53.392 34.5368 52.9868 35.7402 52.1515C36.9353 51.3219 37.886 50.1083 38.6214 48.5769C40.0793 45.5411 40.76 41.1121 40.76 35.4H38.76C38.76 41.0159 38.0807 45.0829 36.8186 47.7111C36.194 49.0117 35.4447 49.9221 34.5998 50.5085C33.7632 51.0892 32.7765 51.392 31.6 51.392V53.392ZM40.76 35.4C40.76 29.6879 40.0793 25.2589 38.6214 22.2231C37.886 20.6917 36.9353 19.4781 35.7402 18.6485C34.5368 17.8132 33.1435 17.408 31.6 17.408V19.408C32.7765 19.408 33.7632 19.7108 34.5998 20.2915C35.4447 20.8779 36.194 21.7883 36.8186 23.0889C38.0807 25.7171 38.76 29.7841 38.76 35.4H40.76ZM31.6 17.408C30.0565 17.408 28.6632 17.8132 27.4598 18.6485C26.2647 19.4781 25.314 20.6917 24.5786 22.2231C23.1207 25.2589 22.44 29.6879 22.44 35.4H24.44C24.44 29.7841 25.1193 25.7171 26.3814 23.0889C27.006 21.7883 27.7553 20.8779 28.6002 20.2915C29.4368 19.7108 30.4235 19.408 31.6 19.408V17.408ZM22.44 35.4C22.44 41.1121 23.1207 45.5411 24.5786 48.5769C25.314 50.1083 26.2647 51.3219 27.4598 52.1515C28.6632 52.9868 30.0565 53.392 31.6 53.392V51.392C30.4235 51.392 29.4368 51.0892 28.6002 50.5085C27.7553 49.9221 27.006 49.0117 26.3814 47.7111C25.1193 45.0829 24.44 41.0159 24.44 35.4H22.44ZM126.275 51.432H127.275V50.432H126.275V51.432ZM126.275 69V70H127.275V69H126.275ZM72.0348 69H71.0348V70H72.0348V69ZM72.0348 55.08L71.3528 54.3486L71.0348 54.6451V55.08H72.0348ZM96.1308 32.616L95.4559 31.8779L95.4489 31.8846L96.1308 32.616ZM100.643 27.336L99.7722 26.8439L99.7639 26.8586L99.7562 26.8734L100.643 27.336ZM100.067 19.464L99.4735 20.2691L100.067 19.464ZM88.7388 19.752L88.233 18.8893L88.2264 18.8932L88.2198 18.8972L88.7388 19.752ZM84.4187 24.36L83.9634 25.2503L84.8284 25.6927L85.2956 24.8408L84.4187 24.36ZM67.7148 15.816L66.8179 15.3736L66.3819 16.2575L67.2594 16.7063L67.7148 15.816ZM78.5628 4.488L79.0552 5.35835L79.0589 5.35624L78.5628 4.488ZM111.395 2.856L111.011 3.7795L111.395 2.856ZM121.091 10.248L120.279 10.8323L120.287 10.8428L121.091 10.248ZM122.051 31.464L122.927 31.9466L122.931 31.9391L122.051 31.464ZM112.451 42.696L113.131 43.4288L113.132 43.4277L112.451 42.696ZM103.043 51.432L102.362 50.6992L100.496 52.432H103.043V51.432ZM125.275 51.432V69H127.275V51.432H125.275ZM126.275 68H72.0348V70H126.275V68ZM73.0348 69V55.08H71.0348V69H73.0348ZM72.7167 55.8114L96.8127 33.3474L95.4489 31.8846L71.3528 54.3486L72.7167 55.8114ZM96.8055 33.354C99.0726 31.2813 100.68 29.4269 101.529 27.7986L99.7562 26.8734C99.0697 28.1891 97.6689 29.8547 95.456 31.878L96.8055 33.354ZM101.513 27.8281C102.409 26.2441 102.891 24.6675 102.891 23.112H100.891C100.891 24.2445 100.541 25.4839 99.7722 26.8439L101.513 27.8281ZM102.891 23.112C102.891 21.2646 102.137 19.7472 100.66 18.6589L99.4735 20.2691C100.429 20.9728 100.891 21.8874 100.891 23.112H102.891ZM100.66 18.6589C99.2156 17.5947 97.3174 17.12 95.0748 17.12V19.12C97.0561 19.12 98.4859 19.5413 99.4735 20.2691L100.66 18.6589ZM95.0748 17.12C92.5474 17.12 90.2575 17.7025 88.233 18.8893L89.2445 20.6147C90.932 19.6255 92.8661 19.12 95.0748 19.12V17.12ZM88.2198 18.8972C86.2659 20.0835 84.7074 21.7539 83.5419 23.8792L85.2956 24.8408C86.3061 22.9981 87.6276 21.5965 89.2577 20.6068L88.2198 18.8972ZM84.8741 23.4697L68.1701 14.9257L67.2594 16.7063L83.9634 25.2503L84.8741 23.4697ZM68.6116 16.2584C70.8867 11.6466 74.3577 8.01613 79.0552 5.35835L78.0703 3.61765C73.0398 6.46386 69.2788 10.3854 66.8179 15.3736L68.6116 16.2584ZM79.0589 5.35624C83.7974 2.64854 89.7584 1.264 96.9948 1.264V-0.736002C89.5111 -0.736002 83.1841 0.695458 78.0666 3.61975L79.0589 5.35624ZM96.9948 1.264C102.33 1.264 106.995 2.11132 111.011 3.7795L111.778 1.9325C107.474 0.144675 102.54 -0.736002 96.9948 -0.736002V1.264ZM111.011 3.7795C115.025 5.44668 118.098 7.80338 120.279 10.8323L121.902 9.66369C119.475 6.29261 116.085 3.72131 111.778 1.9325L111.011 3.7795ZM120.287 10.8428C122.519 13.8598 123.643 17.3602 123.643 21.384H125.643C125.643 16.9597 124.398 13.0362 121.895 9.65315L120.287 10.8428ZM123.643 21.384C123.643 24.7325 122.823 27.9298 121.171 30.9888L122.931 31.9391C124.735 28.5982 125.643 25.0755 125.643 21.384H123.643ZM121.175 30.9814C119.523 33.9789 116.414 37.6373 111.769 41.9643L113.132 43.4277C117.831 39.0507 121.122 35.2211 122.927 31.9466L121.175 30.9814ZM111.77 41.9632L102.362 50.6992L103.723 52.1648L113.131 43.4288L111.77 41.9632ZM103.043 52.432H126.275V50.432H103.043V52.432Z" fill="#454545"/>
</svg>
