<svg width="129" height="71" viewBox="0 0 129 71" fill="none" xmlns="http://www.w3.org/2000/svg">
<path d="M15.568 66.408L15.0518 67.2645L15.0605 67.2696L15.568 66.408ZM4.624 54.312L3.72741 54.7549L3.72957 54.7592L4.624 54.312ZM4.624 16.584L5.51844 17.0312L5.52058 17.0269L4.624 16.584ZM15.568 4.488L16.0756 5.34967L16.0842 5.34445L15.568 4.488ZM47.632 4.488L47.1158 5.3445L47.1245 5.34963L47.632 4.488ZM58.576 16.584L57.6794 17.0269L57.6816 17.0312L58.576 16.584ZM58.576 54.312L59.4704 54.7592L59.4726 54.7549L58.576 54.312ZM47.632 66.408L48.1396 67.2697L48.1482 67.2645L47.632 66.408ZM31.6 69.536C25.7424 69.536 20.5773 68.1981 16.0755 65.5464L15.0605 67.2696C19.9027 70.1219 25.4256 71.536 31.6 71.536V69.536ZM16.0842 65.5515C11.5869 62.8408 8.06436 58.9566 5.51843 53.8648L3.72957 54.7592C6.43164 60.1633 10.2051 64.3432 15.0518 67.2645L16.0842 65.5515ZM5.52058 53.8691C2.97853 48.723 1.688 42.5773 1.688 35.4H-0.312C-0.312 42.8147 1.02147 49.277 3.72742 54.7549L5.52058 53.8691ZM1.688 35.4C1.688 28.2223 2.97869 22.1107 5.51843 17.0312L3.72957 16.1368C1.02131 21.5533 -0.312 27.9857 -0.312 35.4H1.688ZM5.52058 17.0269C8.06672 11.8725 11.5867 7.99375 16.0755 5.34962L15.0605 3.62637C10.2053 6.48624 6.42928 10.6715 3.72742 16.1411L5.52058 17.0269ZM16.0842 5.34445C20.5847 2.63184 25.7467 1.264 31.6 1.264V-0.736002C25.4214 -0.736002 19.8953 0.712151 15.0518 3.63154L16.0842 5.34445ZM31.6 1.264C37.4534 1.264 42.6153 2.63184 47.1158 5.34445L48.1482 3.63154C43.3047 0.712151 37.7787 -0.736002 31.6 -0.736002V1.264ZM47.1245 5.34963C51.6133 7.99375 55.1333 11.8725 57.6794 17.0269L59.4726 16.1411C56.7707 10.6715 52.9947 6.48624 48.1395 3.62636L47.1245 5.34963ZM57.6816 17.0312C60.2213 22.1107 61.512 28.2223 61.512 35.4H63.512C63.512 27.9857 62.1787 21.5533 59.4704 16.1368L57.6816 17.0312ZM61.512 35.4C61.512 42.5773 60.2215 48.723 57.6794 53.8691L59.4726 54.7549C62.1785 49.277 63.512 42.8147 63.512 35.4H61.512ZM57.6816 53.8648C55.1356 58.9566 51.6132 62.8408 47.1158 65.5515L48.1482 67.2645C52.9949 64.3432 56.7684 60.1633 59.4704 54.7592L57.6816 53.8648ZM47.1245 65.5464C42.6227 68.1981 37.4576 69.536 31.6 69.536V71.536C37.7744 71.536 43.2973 70.1219 48.1395 67.2696L47.1245 65.5464ZM31.6 53.392C33.1435 53.392 34.5368 52.9868 35.7402 52.1515C36.9353 51.3219 37.886 50.1083 38.6214 48.5769C40.0793 45.5411 40.76 41.1121 40.76 35.4H38.76C38.76 41.0159 38.0807 45.0829 36.8186 47.7111C36.194 49.0117 35.4447 49.9221 34.5998 50.5085C33.7632 51.0892 32.7765 51.392 31.6 51.392V53.392ZM40.76 35.4C40.76 29.6879 40.0793 25.2589 38.6214 22.2231C37.886 20.6917 36.9353 19.4781 35.7402 18.6485C34.5368 17.8132 33.1435 17.408 31.6 17.408V19.408C32.7765 19.408 33.7632 19.7108 34.5998 20.2915C35.4447 20.8779 36.194 21.7883 36.8186 23.0889C38.0807 25.7171 38.76 29.7841 38.76 35.4H40.76ZM31.6 17.408C30.0565 17.408 28.6632 17.8132 27.4598 18.6485C26.2647 19.4781 25.314 20.6917 24.5786 22.2231C23.1207 25.2589 22.44 29.6879 22.44 35.4H24.44C24.44 29.7841 25.1193 25.7171 26.3814 23.0889C27.006 21.7883 27.7553 20.8779 28.6002 20.2915C29.4368 19.7108 30.4235 19.408 31.6 19.408V17.408ZM22.44 35.4C22.44 41.1121 23.1207 45.5411 24.5786 48.5769C25.314 50.1083 26.2647 51.3219 27.4598 52.1515C28.6632 52.9868 30.0565 53.392 31.6 53.392V51.392C30.4235 51.392 29.4368 51.0892 28.6002 50.5085C27.7553 49.9221 27.006 49.0117 26.3814 47.7111C25.1193 45.0829 24.44 41.0159 24.44 35.4H22.44ZM111.683 28.2L110.997 27.4721L109.625 28.7647L111.465 29.1759L111.683 28.2ZM124.163 35.112L123.4 35.7593L123.408 35.7675L124.163 35.112ZM125.219 58.824L124.375 58.2871L125.219 58.824ZM114.755 67.368L115.162 68.2814L115.172 68.2767L114.755 67.368ZM80.9628 68.712L80.7258 69.6836L80.737 69.6862L80.9628 68.712ZM68.0027 63.528L67.0942 63.1103L66.731 63.9002L67.4628 64.3697L68.0027 63.528ZM75.6827 46.824L76.1999 45.9681L75.2418 45.3892L74.7742 46.4063L75.6827 46.824ZM103.907 44.04L103.373 44.8855L103.382 44.8916L103.392 44.8975L103.907 44.04ZM87.3948 42.888H86.3948V43.888H87.3948V42.888ZM87.3948 28.968L86.7076 28.2415L86.3948 28.5374V28.968H87.3948ZM98.0508 18.888L98.738 19.6145L100.563 17.888H98.0508V18.888ZM71.6507 18.888H70.6507V19.888H71.6507V18.888ZM71.6507 1.8V0.799995H70.6507V1.8H71.6507ZM124.931 1.8H125.931V0.799995H124.931V1.8ZM124.931 15.72L125.616 16.4479L125.931 16.1518V15.72H124.931ZM111.465 29.1759C116.747 30.3566 120.694 32.5711 123.4 35.7592L124.925 34.4648C121.872 30.8689 117.499 28.4754 111.901 27.2241L111.465 29.1759ZM123.408 35.7675C126.18 38.9619 127.579 42.8512 127.579 47.496H129.579C129.579 42.4127 128.033 38.0461 124.918 34.4565L123.408 35.7675ZM127.579 47.496C127.579 51.331 126.517 54.9217 124.375 58.2871L126.062 59.3609C128.401 55.6863 129.579 51.725 129.579 47.496H127.579ZM124.375 58.2871C122.261 61.6086 118.942 64.3437 114.337 66.4593L115.172 68.2767C120.04 66.0403 123.696 63.0794 126.062 59.3609L124.375 58.2871ZM114.347 66.4547C109.777 68.493 104.038 69.536 97.0908 69.536V71.536C104.224 71.536 110.261 70.467 115.162 68.2813L114.347 66.4547ZM97.0908 69.536C91.6611 69.536 86.3609 68.9363 81.1885 67.7378L80.737 69.6862C86.0606 70.9197 91.5124 71.536 97.0908 71.536V69.536ZM81.1997 67.7405C76.025 66.4783 71.8159 64.7861 68.5427 62.6863L67.4628 64.3697C70.9736 66.6219 75.4045 68.3857 80.7258 69.6835L81.1997 67.7405ZM68.9113 63.9457L76.5913 47.2417L74.7742 46.4063L67.0942 63.1103L68.9113 63.9457ZM75.1656 47.6799C78.3215 49.5866 81.7989 51.0614 85.5928 52.108L86.1247 50.18C82.4946 49.1786 79.188 47.7734 76.1999 45.9681L75.1656 47.6799ZM85.5928 52.108C89.38 53.1527 93.0217 53.68 96.5147 53.68V51.68C93.2238 51.68 89.7615 51.1833 86.1247 50.18L85.5928 52.108ZM96.5147 53.68C99.6788 53.68 102.211 53.2453 103.985 52.2577C104.887 51.7555 105.61 51.1008 106.103 50.2777C106.596 49.4532 106.827 48.5144 106.827 47.496H104.827C104.827 48.2056 104.669 48.7788 104.387 49.2503C104.104 49.7232 103.662 50.1485 103.012 50.5103C101.682 51.2507 99.5587 51.68 96.5147 51.68V53.68ZM106.827 47.496C106.827 45.6212 106.013 44.1376 104.421 43.1825L103.392 44.8975C104.36 45.4784 104.827 46.2988 104.827 47.496H106.827ZM104.441 43.1945C102.973 42.2676 100.713 41.888 97.8587 41.888V43.888C100.636 43.888 102.408 44.2764 103.373 44.8855L104.441 43.1945ZM97.8587 41.888H87.3948V43.888H97.8587V41.888ZM88.3948 42.888V28.968H86.3948V42.888H88.3948ZM88.0819 29.6945L98.738 19.6145L97.3635 18.1615L86.7076 28.2415L88.0819 29.6945ZM98.0508 17.888H71.6507V19.888H98.0508V17.888ZM72.6507 18.888V1.8H70.6507V18.888H72.6507ZM71.6507 2.8H124.931V0.799995H71.6507V2.8ZM123.931 1.8V15.72H125.931V1.8H123.931ZM124.245 14.9921L110.997 27.4721L112.368 28.9279L125.616 16.4479L124.245 14.9921Z" fill="#454545"/>
</svg>
