<svg width="30" height="30" viewBox="0 0 30 30" fill="none" xmlns="http://www.w3.org/2000/svg">
<g clip-path="url(#clip0_3_14388)">
<path d="M15 30C6.72875 30 0 23.2713 0 15C0 6.72875 6.72875 0 15 0C23.2713 0 30 6.72875 30 15C30 23.2713 23.2713 30 15 30ZM15 1.25C7.41875 1.25 1.25 7.41875 1.25 15C1.25 22.5813 7.41875 28.75 15 28.75C22.5813 28.75 28.75 22.5813 28.75 15C28.75 7.41875 22.5813 1.25 15 1.25Z" fill="#FCB427"/>
<path d="M21.874 22.5C21.714 22.5 21.554 22.4388 21.4315 22.3175L14.5565 15.4425C14.4403 15.325 14.374 15.1663 14.374 15V5.625C14.374 5.28 14.654 5 14.999 5C15.344 5 15.624 5.28 15.624 5.625V14.7413L22.3165 21.4338C22.5603 21.6775 22.5603 22.0738 22.3165 22.3175C22.194 22.4388 22.034 22.5 21.874 22.5Z" fill="#FCB427"/>
</g>
<defs>
<clipPath id="clip0_3_14388">
<rect width="30" height="30" fill="white"/>
</clipPath>
</defs>
</svg>
