<svg width="30" height="23" viewBox="0 0 30 23" fill="none" xmlns="http://www.w3.org/2000/svg">
<path d="M27.5 0H2.50002C1.12119 0 0 1.13365 0 2.5278V20.2223C0 21.6164 1.12119 22.75 2.50002 22.75H27.5C28.8788 22.75 30 21.6164 30 20.2222V2.5278C30 1.13365 28.8788 0 27.5 0ZM2.50002 1.26387H27.5C27.5921 1.26387 27.6733 1.29782 27.7597 1.31701C25.5953 3.3199 18.4185 9.9584 15.907 12.2464C15.7105 12.4254 15.3938 12.6389 15.0001 12.6389C14.6064 12.6389 14.2896 12.4254 14.0924 12.2458C11.5812 9.95816 4.40396 3.31931 2.23992 1.31713C2.32652 1.29794 2.40785 1.26387 2.50002 1.26387ZM1.24998 20.2222V2.5278C1.24998 2.40398 1.28689 2.29165 1.31994 2.17849C2.9765 3.71151 7.98416 8.3435 11.2312 11.329C7.99471 14.14 2.98576 18.9417 1.31602 20.5516C1.28654 20.4441 1.24998 20.339 1.24998 20.2222ZM27.5 21.4861H2.50002C2.40018 21.4861 2.31141 21.4509 2.21818 21.4284C3.94359 19.7653 8.98441 14.936 12.164 12.1857C12.5785 12.5659 12.9571 12.9125 13.2556 13.1845C13.7708 13.6547 14.3737 13.9028 15 13.9028C15.6263 13.9028 16.2292 13.6547 16.7438 13.185C17.0423 12.913 17.4213 12.5661 17.836 12.1857C21.0158 14.9357 26.0559 19.7647 27.7818 21.4284C27.6886 21.4509 27.5999 21.4861 27.5 21.4861ZM28.75 20.2222C28.75 20.339 28.7135 20.4441 28.684 20.5516C27.0137 18.9409 22.0053 14.1397 18.7689 11.3291C22.016 8.34356 27.0229 3.71198 28.6801 2.17837C28.7131 2.29153 28.75 2.40392 28.75 2.52774V20.2222Z" fill="#FCB427"/>
</svg>
