<svg width="22" height="30" viewBox="0 0 22 30" fill="none" xmlns="http://www.w3.org/2000/svg">
<path d="M11.0978 6.57422C8.98357 6.57422 7.2627 8.29509 7.2627 10.4093C7.2627 12.5236 8.98357 14.2445 11.0978 14.2445C13.2121 14.2445 14.9329 12.5236 14.9329 10.4093C14.9329 8.29509 13.2121 6.57422 11.0978 6.57422ZM11.0978 13.1487C9.58733 13.1487 8.35845 11.9198 8.35845 10.4093C8.35845 8.89885 9.58733 7.66997 11.0978 7.66997C12.6083 7.66997 13.8372 8.89885 13.8372 10.4093C13.8372 11.9198 12.6083 13.1487 11.0978 13.1487Z" fill="#FCB427"/>
<path d="M18.4302 3.07741C16.4458 1.09301 13.8072 0 11.001 0C8.19422 0 5.55621 1.09301 3.5718 3.07741C-0.100607 6.74927 -0.556987 13.658 2.58343 17.8437L11.001 30L19.4059 17.8607C22.559 13.658 22.1026 6.74927 18.4302 3.07741ZM18.5173 17.2203L11.001 28.0748L3.47264 17.2033C0.624233 13.4054 1.0324 7.16621 4.34704 3.85211C6.12435 2.0748 8.48734 1.09575 11.001 1.09575C13.5146 1.09575 15.8776 2.0748 17.6555 3.85211C20.9701 7.16621 21.3783 13.4054 18.5173 17.2203Z" fill="#FCB427"/>
</svg>
