<svg width="1600" height="47" viewBox="0 0 1600 47" fill="none" xmlns="http://www.w3.org/2000/svg">
<path fill-rule="evenodd" clip-rule="evenodd" d="M371.331 -438.185V-376H459.158L1006.35 313.65V315.316L1143.27 487.876H1006.11V424.447H918.443L371.247 -265.203V-265.423L234.171 -438.185H371.331ZM-126.455 362.06L-263.615 189.193V362.06H-126.455ZM166.473 362.06L-263.615 -179.794V41.5981L-9.18756 362.262H166.473V362.06ZM-58.5972 -438.185L371.247 103.563V103.783L625.675 424.447H801.336V424.245L371.491 -117.301V-117.521L117.064 -438.185H-58.5972ZM-263.615 -438.185V-327.388L283.581 362.262H371.247V424.245H508.407L371.491 251.685V251.465L-175.705 -438.185H-263.615ZM1006.19 -312.369V-376H869.033L1006.11 -203.238V-201.572L1553.31 488.078H1641.22V377.281L1094.02 -312.369H1006.19ZM1006.35 -53.6704L1436.2 487.876V488.078H1260.54L1006.11 167.414V165.748L576.265 -376H751.926L1006.35 -55.3361V-53.6704ZM1641.06 -139.502V-312.369H1503.9L1641.06 -139.502ZM1641.22 229.686L1211.13 -312.369H1386.79L1641.22 8.29474V229.686Z" fill="#595959"/>
</svg>
