<svg width="1600" height="43" viewBox="0 0 1600 43" fill="none" xmlns="http://www.w3.org/2000/svg">
<path fill-rule="evenodd" clip-rule="evenodd" d="M344.331 -400.891V-343.998H432.158L979.354 286.955V288.479L1116.27 446.352H979.109V388.322H891.443L344.247 -242.631V-242.833L207.171 -400.891H344.331ZM-153.455 331.245L-290.615 173.09V331.245H-153.455ZM139.473 331.245L-290.615 -164.491V38.0577L-36.1876 331.43H139.473V331.245ZM-85.5972 -400.891L344.247 94.7488V94.95L598.675 388.322H774.336V388.137L344.491 -107.317V-107.518L90.0637 -400.891H-85.5972ZM-290.615 -400.891V-299.524L256.581 331.43H344.247V388.137H481.407L344.491 230.264V230.063L-202.705 -400.891H-290.615ZM979.193 -285.783V-343.998H842.033L979.109 -185.94V-184.416L1526.31 446.537H1614.22V345.17L1067.02 -285.783H979.193ZM979.354 -49.1022L1409.2 446.352V446.537H1233.54L979.109 153.165V151.641L549.265 -343.998H724.926L979.354 -50.6262V-49.1022ZM1614.06 -127.629V-285.783H1476.9L1614.06 -127.629ZM1614.22 210.138L1184.13 -285.783H1359.79L1614.22 7.58902V210.138Z" fill="#595959"/>
</svg>
