<svg width="1600" height="33" viewBox="0 0 1600 33" fill="none" xmlns="http://www.w3.org/2000/svg">
<mask id="mask0_3_8671" style="mask-type:alpha" maskUnits="userSpaceOnUse" x="-10" y="0" width="1716" height="33">
<path d="M1705.99 32.9999L1705.99 -3.8147e-06L-10.0001 5.28078e-05L-10.0001 33L1705.99 32.9999Z" fill="black" fill-opacity="0.25"/>
</mask>
<g mask="url(#mask0_3_8671)">
<path fill-rule="evenodd" clip-rule="evenodd" d="M480.454 -307.66V-263.999H560.619L1060.08 220.221V221.391L1185.05 342.549H1059.86V298.014H979.837L480.378 -186.206V-186.36L355.26 -307.66H480.454ZM26.0946 254.211L-99.0996 132.837V254.211H26.0946ZM293.468 254.211L-99.0996 -126.238V29.207L133.132 254.353H293.468V254.211ZM88.0327 -307.66L480.378 72.7141V72.8682L712.609 298.014H872.946V297.872L480.601 -82.3602V-82.5143L248.369 -307.66H88.0327ZM-99.0996 -307.66V-229.867L400.359 254.353H480.378V297.872H605.572L480.601 176.714V176.56L-18.8582 -307.66H-99.0996ZM1059.93 -219.322V-263.999H934.737L1059.86 -142.699V-141.529L1559.31 342.691H1639.56V264.898L1140.1 -219.322H1059.93ZM1059.86 116.375L667.51 -263.999H827.846L1060.08 -38.8531V-37.6834L1452.42 342.549V342.691H1292.09L1059.86 117.545V116.375ZM1639.41 -97.9479V-219.322H1514.21L1639.41 -97.9479ZM1639.56 161.268L1246.99 -219.322H1407.32L1639.56 5.82373V161.268Z" fill="white"/>
</g>
</svg>
